<svg xmlns="http://www.w3.org/2000/svg" width="430" height="430" fill="none" viewBox="0 0 430 430"><g stroke-linecap="round" stroke-linejoin="round" stroke-miterlimit="13.284" stroke-width="12"><path stroke="#08a88a" d="M215 381c-56.6 0-102.4-74.3-102.4-166.1s45.8-166 102.4-166m0 332.1c.3-29.1.6-74.3.6-166.1s-.3-113.7-.6-166.1"/><path stroke="#08a88a" d="M215 381c58.4 0 105.7-74.3 105.7-166.1s-47.3-166-105.7-166M48.9 215H381"/><path stroke="#08a88a" d="M322.401 88.3c-28.9 15.1-66.4 24.3-107.3 24.3s-78.4-9.1-107.4-24.3m0 253.4c28.9-15.1 66.4-24.3 107.3-24.3s78.4 9.1 107.4 24.3"/><path stroke="#121331" d="M381.1 215c0 91.7-74.3 166.1-166.1 166.1S49 306.7 49 215 123.3 49 215 49s166.1 74.3 166.1 166"/></g></svg>